<svg xmlns="http://www.w3.org/2000/svg" viewBox="0 0 64 64">
  <style>
    .bg { fill: #F6F4EE; }
    .iv { fill: #14213A; stroke: #14213A; stroke-width: 1.5; stroke-linejoin: round; }
    .smile { stroke: #14213A; stroke-opacity: 0.55; }
    .dot { fill: #C2412D; }
  </style>
  <rect class="bg" width="64" height="64" rx="14"/>
  <g transform="translate(4.5 3.5) scale(0.86)">
    <path class="iv" d="M18.5 11.8L19.0 11.3L19.6 10.7L20.2 10.1L20.8 9.5L21.4 8.9L22.1 8.4L18.0 13.2L17.4 13.7L16.7 14.3L16.1 14.9L15.5 15.5L15.0 16.1L14.5 16.6ZM22.1 8.4L22.1 9.5L22.1 10.8L22.0 12.0L21.8 13.4L21.6 14.8L21.4 16.2L21.2 17.6L20.9 19.1L20.6 20.7L20.2 22.2L19.9 23.7L19.6 25.3L19.3 26.9L19.0 28.4L18.7 30.0L18.4 31.5L18.2 33.0L18.0 34.5L17.9 36.0L17.8 37.4L17.8 38.8L17.9 40.1L13.8 44.9L13.8 43.6L13.8 42.2L13.8 40.8L14.0 39.3L14.1 37.9L14.4 36.3L14.6 34.8L14.9 33.3L15.2 31.7L15.5 30.1L15.9 28.6L16.2 27.0L16.5 25.5L16.8 24.0L17.1 22.5L17.4 21.0L17.6 19.6L17.8 18.2L17.9 16.9L18.0 15.6L18.1 14.4L18.0 13.2ZM28.8 8.6L29.0 9.8L29.4 11.1L29.7 12.5L30.1 13.9L30.4 15.3L30.8 16.7L31.2 18.2L31.6 19.7L32.0 21.2L32.5 22.7L32.9 24.3L33.3 25.8L33.8 27.4L34.2 28.9L34.7 30.5L35.1 32.0L35.6 33.6L36.0 35.1L36.5 36.6L36.9 38.1L37.3 39.6L37.7 41.0L33.7 45.8L33.3 44.4L32.8 42.9L32.4 41.4L32.0 39.9L31.5 38.4L31.1 36.9L30.6 35.3L30.2 33.8L29.7 32.2L29.3 30.6L28.9 29.1L28.4 27.5L28.0 26.0L27.6 24.5L27.2 23.0L26.8 21.5L26.4 20.1L26.0 18.7L25.6 17.3L25.3 16.0L25.0 14.7L24.7 13.4ZM37.7 41.0L38.6 39.4L39.5 37.7L40.3 36.1L41.2 34.5L42.2 32.9L43.1 31.3L44.0 29.7L44.9 28.1L45.9 26.6L46.8 25.0L47.8 23.5L48.7 22.0L49.7 20.5L50.7 19.0L51.6 17.6L52.6 16.2L53.5 14.8L54.5 13.4L55.4 12.1L56.4 10.8L57.3 9.6L58.3 8.4L54.2 13.2L53.3 14.4L52.3 15.7L51.4 16.9L50.4 18.3L49.5 19.6L48.5 21.0L47.6 22.4L46.6 23.8L45.6 25.3L44.7 26.8L43.7 28.3L42.8 29.8L41.8 31.4L40.9 33.0L40.0 34.5L39.0 36.1L38.1 37.7L37.2 39.3L36.3 40.9L35.4 42.6L34.5 44.2L33.7 45.8ZM58.3 8.4L58.9 7.8L59.6 7.4L60.3 7.1L61.1 7.1L61.8 7.2L62.4 7.4L58.4 12.2L57.7 12.0L57.0 11.9L56.3 12.0L55.6 12.2L54.9 12.6L54.2 13.2Z"/>
    <path class="smile" fill="none" stroke-width="3" stroke-linecap="round" d="M5.5 47C11 52 22.7 54.5 35.7 54.5S48.7 52 58.5 47"/>
    <circle class="dot" cx="35.7" cy="54.5" r="4.2"/>
  </g>
</svg>
